# xmcd
#
# Track frame offsets: 
#        150
#        8639
#        30096
#        48820
#        80108
#        83361
#        101309
#        115832
#        142539
#        169541
#        180433
#        200565
#
# Disc length: 3016 seconds
#
# Revision: 0
# Processed by: cddbd v1.5.2PL0 Copyright (c) Steve Scherf et al.
# Submitted via: ExactAudioCopyFreeDBPlugin 1.0
#
DISCID=750bc60c
DTITLE=The Rebirth - Being Thru The Eyes Of A Child
DYEAR=2015
DGENRE=Soul
TTITLE0=Being Thru The Eyes (Prelude)
TTITLE1=This Is Coming To?
TTITLE2=Wasteland
TTITLE3=By Design
TTITLE4=Surrender (Orchestral Interlude)
TTITLE5=Caterpillar
TTITLE6=Samurai
TTITLE7=Religion To Me
TTITLE8=Show 'em
TTITLE9=Come On Over
TTITLE10=Halfway
TTITLE11=Surrender To Pretender
EXTD=
EXTT0=
EXTT1=
EXTT2=
EXTT3=
EXTT4=
EXTT5=
EXTT6=
EXTT7=
EXTT8=
EXTT9=
EXTT10=
EXTT11=
PLAYORDER=
